<svg width="135" height="115" viewBox="0 0 135 115" fill="none" xmlns="http://www.w3.org/2000/svg">
<circle cx="7.5" cy="7.5" r="7.5" fill="white"/>
<circle cx="7.5" cy="32.5" r="7.5" fill="white"/>
<circle cx="7.5" cy="57.5" r="7.5" fill="white"/>
<circle cx="7.5" cy="82.5" r="7.5" fill="white"/>
<circle cx="7.5" cy="107.5" r="7.5" fill="white"/>
<circle cx="37.5" cy="7.5" r="7.5" fill="white"/>
<circle cx="37.5" cy="32.5" r="7.5" fill="white"/>
<circle cx="37.5" cy="57.5" r="7.5" fill="white"/>
<circle cx="37.5" cy="82.5" r="7.5" fill="white"/>
<circle cx="37.5" cy="107.5" r="7.5" fill="white"/>
<circle cx="67.5" cy="7.5" r="7.5" fill="white"/>
<circle cx="67.5" cy="32.5" r="7.5" fill="white"/>
<circle cx="67.5" cy="57.5" r="7.5" fill="white"/>
<circle cx="67.5" cy="82.5" r="7.5" fill="white"/>
<circle cx="67.5" cy="107.5" r="7.5" fill="white"/>
<circle cx="97.5" cy="7.5" r="7.5" fill="white"/>
<circle cx="97.5" cy="32.5" r="7.5" fill="white"/>
<circle cx="97.5" cy="57.5" r="7.5" fill="white"/>
<circle cx="97.5" cy="82.5" r="7.5" fill="white"/>
<circle cx="97.5" cy="107.5" r="7.5" fill="white"/>
<circle cx="127.5" cy="7.5" r="7.5" fill="white"/>
<circle cx="127.5" cy="32.5" r="7.5" fill="white"/>
<circle cx="127.5" cy="57.5" r="7.5" fill="white"/>
<circle cx="127.5" cy="82.5" r="7.5" fill="white"/>
<circle cx="127.5" cy="107.5" r="7.5" fill="white"/>
</svg>
