<svg width="135" height="115" viewBox="0 0 135 115" fill="none" xmlns="http://www.w3.org/2000/svg">
<circle cx="7.5" cy="7.5" r="7.5" fill="white"/>
<circle cx="7.5" cy="32.5" r="7.5" fill="white"/>
<circle cx="7.5" cy="57.5" r="7.5" fill="white"/>
<circle cx="7.5" cy="82.5" r="7.5" fill="white"/>
<circle cx="37.5" cy="7.5" r="7.5" fill="white"/>
<circle cx="37.5" cy="82.5" r="7.5" fill="white"/>
<circle cx="67.5" cy="7.5" r="7.5" fill="white"/>
<circle cx="67.5" cy="32.5" r="7.5" fill="white"/>
<circle cx="67.5" cy="57.5" r="7.5" fill="white"/>
<circle cx="67.5" cy="82.5" r="7.5" fill="white"/>
<circle cx="67.5" cy="107.5" r="7.5" fill="white"/>
<circle cx="97.5" cy="57.5" r="7.5" fill="white"/>
<circle cx="127.5" cy="7.5" r="7.5" fill="white"/>
<circle cx="127.5" cy="32.5" r="7.5" fill="white"/>
<circle cx="127.5" cy="57.5" r="7.5" fill="white"/>
<circle cx="127.5" cy="82.5" r="7.5" fill="white"/>
<circle cx="97.5" cy="82.5" r="7.5" fill="white"/>
<rect x="97" y="75" width="31" height="15" fill="white"/>
<circle cx="37.5" cy="107.5" r="7.5" fill="white"/>
<circle cx="7.5" cy="107.5" r="7.5" fill="white"/>
<rect x="7" y="100" width="31" height="15" fill="white"/>
<circle cx="127.5" cy="107.5" r="7.5" fill="white"/>
<circle cx="97.5" cy="107.5" r="7.5" fill="white"/>
<circle cx="37.5656" cy="31.5132" r="7.5" transform="rotate(-89.8995 37.5656 31.5132)" fill="white"/>
<circle cx="37.5131" cy="61.5132" r="7.5" transform="rotate(-89.8995 37.5131 61.5132)" fill="white"/>
<rect x="30.0122" y="62" width="31" height="15" transform="rotate(-89.8995 30.0122 62)" fill="white"/>
<circle cx="97.5656" cy="7.51316" r="7.5" transform="rotate(-89.8995 97.5656 7.51316)" fill="white"/>
<circle cx="97.5131" cy="37.5132" r="7.5" transform="rotate(-89.8995 97.5131 37.5132)" fill="white"/>
<rect x="90.0122" y="38" width="31" height="15" transform="rotate(-89.8995 90.0122 38)" fill="white"/>
</svg>
