<svg width="149" height="12" viewBox="0 0 149 12" fill="none" xmlns="http://www.w3.org/2000/svg">
<path d="M141.903 3.71003C141.349 3.75671 140.851 3.74997 140.298 3.79665C139.578 3.84108 138.857 3.9397 138.082 3.98338C136.864 4.07525 135.645 4.27547 134.479 4.53063C133.203 4.83847 131.98 5.25542 130.811 5.83566C130.588 5.94103 130.365 6.10057 130.088 6.151C129.81 6.25561 129.587 6.36098 129.309 6.46559C128.92 6.62288 128.586 6.72675 128.198 6.82986C127.754 6.93222 127.31 7.03458 126.867 7.08277C126.479 7.1317 126.092 7.12645 125.704 7.1212C125.317 7.11595 124.986 7.05727 124.599 7.05202C124.102 6.9911 123.606 6.87599 123.11 6.70669C122.615 6.5374 122.119 6.36811 121.624 6.14464C120.8 5.75413 119.976 5.30943 119.152 4.86474C118.768 4.64277 118.439 4.42155 118.056 4.14539C117.617 3.86849 117.178 3.59159 116.74 3.31468C116.411 3.09346 116.026 2.92567 115.641 2.75788C115.421 2.64652 115.145 2.58859 114.869 2.53066C114.594 2.47273 114.372 2.46973 114.097 2.4118C113.931 2.40955 113.765 2.4073 113.653 2.45998C113.431 2.51116 113.21 2.56235 112.988 2.61353C112.654 2.71739 112.32 2.87543 111.986 3.03348C111.318 3.34956 110.705 3.6664 110.037 3.98249C109.202 4.40469 108.422 4.77346 107.532 5.14072C107.032 5.3507 106.476 5.50574 105.976 5.66154C105.255 5.86851 104.589 5.96788 103.869 6.06649C103.204 6.16586 102.485 6.15611 101.82 6.20129C101.046 6.19079 100.273 6.12612 99.4998 6.00726C98.5065 5.83122 97.5685 5.65593 96.5759 5.42571C95.694 5.19699 94.8128 4.91409 93.9876 4.57775C93.1631 4.18724 92.3387 3.79673 91.515 3.35203C90.5814 2.85166 89.6478 2.35128 88.6567 2.0127C88.2718 1.84491 87.8854 1.78548 87.4444 1.67112C87.0034 1.55676 86.5057 1.55001 86.0079 1.54326C85.5102 1.53652 85.0663 1.63888 84.567 1.74049C84.0678 1.84211 83.6224 2.05283 83.177 2.26356C82.1189 2.79112 81.1691 3.48272 80.2194 4.17433C79.6605 4.60027 79.1015 5.02622 78.5426 5.45217C78.0957 5.77126 77.5928 6.14378 77.0907 6.46211C76.5885 6.78045 76.0318 7.04385 75.4751 7.30726C75.1971 7.41187 74.9744 7.51723 74.6971 7.56767C74.3638 7.67153 73.9759 7.72046 73.6434 7.77014C73.4774 7.76789 73.3668 7.7664 73.2009 7.76415C73.0903 7.76265 72.9797 7.76115 72.8691 7.75965C72.5933 7.70172 72.3182 7.58961 72.0432 7.4775C71.0543 6.97637 70.1222 6.36763 69.2461 5.70547C68.808 5.37438 68.4253 5.04405 68.0433 4.65954C67.7705 4.38488 67.4969 4.16441 67.224 3.88976C66.5138 3.22984 65.8605 2.46231 65.0943 1.85582C64.7654 1.6346 64.4365 1.41338 64.0523 1.19141C63.8325 1.08005 63.612 1.02286 63.3915 0.965685C63.3362 0.964935 63.2263 0.909254 63.171 0.908505C63.0051 0.906255 62.8399 0.849825 62.7293 0.848325C62.674 0.847575 62.5634 0.846076 62.5081 0.845326L62.4528 0.844576C62.3422 0.843077 62.1763 0.840827 62.0649 0.893508C61.7877 0.94394 61.5657 0.995122 61.2884 1.04555C60.7885 1.20135 60.2885 1.35714 59.7878 1.56712C59.3985 1.72441 59.0092 1.8817 58.6191 2.09318C58.3411 2.19779 58.0623 2.35658 57.7843 2.4612C57.339 2.67192 56.9489 2.8834 56.5035 3.09412C56.2808 3.19948 56.0581 3.30485 55.8907 3.41096C55.5007 3.62243 55.1098 3.88809 54.7751 4.10031C54.4963 4.25911 54.2176 4.4179 53.9381 4.63087C53.2133 5.05457 52.543 5.5332 51.8181 5.9569C50.3117 6.91191 48.7499 7.86617 47.0812 8.54803C46.6918 8.70532 46.3585 8.80919 45.9692 8.96648C45.5245 9.12302 45.0253 9.22464 44.5268 9.27207C44.3056 9.26907 44.1389 9.321 43.9177 9.318C43.5859 9.3135 43.3094 9.30975 42.9783 9.25107C42.5365 9.19089 42.0956 9.07653 41.7106 8.90874C41.2711 8.68602 40.8323 8.40912 40.4489 8.13297C39.7918 7.63634 39.2468 7.03285 38.7019 6.42937C38.429 6.15471 38.1569 5.82588 37.884 5.55123C37.5566 5.22164 37.1739 4.89131 36.8464 4.56172C36.5183 4.28632 36.2447 4.06585 35.8598 3.89806C35.5265 4.00192 35.3067 3.89056 35.0862 3.83338C34.8657 3.7762 34.6452 3.71902 34.424 3.71602C34.2581 3.71377 34.1475 3.71227 33.9808 3.7642C33.7589 3.81538 33.5922 3.86731 33.3695 3.97268C33.2021 4.07879 32.9795 4.18415 32.8121 4.29026C32.6439 4.45056 32.4758 4.61085 32.363 4.77189C32.0821 5.09323 31.8011 5.41456 31.5755 5.73665C31.3506 6.00455 31.1264 6.21828 30.9569 6.48693C30.732 6.75484 30.451 7.07617 30.2261 7.34408C29.7203 7.93332 29.1606 8.41345 28.5457 8.89283C28.0988 9.21192 27.5974 9.47607 27.096 9.74023C26.596 9.89602 26.1521 9.99838 25.6529 10.1C24.9332 10.1444 24.2695 10.1354 23.5512 10.0715C22.4473 9.89397 21.4009 9.55463 20.356 9.10694C19.4217 8.66075 18.5427 8.2153 17.6651 7.6615C17.2263 7.3846 16.7876 7.10769 16.3495 6.77661C15.9108 6.49971 15.4727 6.16862 15.0339 5.89172C14.5959 5.56064 14.1571 5.28373 13.7184 5.00683C13.2796 4.72993 12.7855 4.45228 12.2907 4.2288C11.3564 3.78261 10.3645 3.49821 9.3683 3.53889C9.14708 3.53589 8.86981 3.58633 8.64859 3.58333C8.37133 3.63376 8.14937 3.68494 7.92741 3.73612C7.70545 3.7873 7.48276 3.89267 7.31611 3.9446C7.09342 4.04996 6.87073 4.15532 6.64877 4.2065C5.48221 4.57002 4.53466 5.09908 3.64169 5.68308C2.86006 6.21439 2.0777 6.79988 1.40448 7.49523C1.06824 7.81582 0.787305 8.13715 0.506369 8.45849C0.393554 8.61953 0.280739 8.78058 0.222495 8.99655C0.22176 9.05073 0.164985 9.15834 0.164251 9.21252C0.106741 9.37432 0.104538 9.53686 0.0470281 9.69865C-0.0112159 9.91463 0.0411516 10.1321 0.204865 10.2969C0.369313 10.4075 0.589802 10.4647 0.811759 10.4135C0.978411 10.3616 1.08976 10.3089 1.25567 10.3111C1.47763 10.26 1.64502 10.1538 1.86771 10.0485C2.14644 9.88969 2.2622 9.51192 2.09995 9.23877C1.99154 9.07473 1.88167 9.01904 1.71648 8.96261C2.27762 8.37412 2.89333 7.84056 3.50904 7.307C4.57013 6.56272 5.68433 5.98172 6.8531 5.45566C7.13109 5.35105 7.40909 5.24644 7.68709 5.14182C8.01966 5.09214 8.40827 4.98903 8.74084 4.93935C9.07341 4.88967 9.34994 4.89341 9.68104 4.95209C9.90152 5.00927 10.0674 5.01152 10.2879 5.0687C10.6183 5.18156 10.8934 5.29368 11.1684 5.40579C11.7178 5.68419 12.2672 5.96259 12.7605 6.29442C13.3638 6.68194 13.9109 7.12288 14.5134 7.56458C15.0613 7.95134 15.6638 8.39304 16.267 8.78055C16.8703 9.16806 17.4735 9.55558 18.0774 9.88891C19.2854 10.5556 20.55 11.1146 21.8169 11.5111C23.1391 11.9084 24.5749 12.0904 26.0158 11.8932C26.6809 11.7939 27.2915 11.6396 27.9028 11.4311C28.5148 11.1684 29.0715 10.905 29.5744 10.5325C30.1326 10.1607 30.637 9.67985 31.1414 9.19897C31.4216 8.93182 31.6465 8.66391 31.8713 8.39601C32.2091 7.96706 32.546 7.59229 32.8837 7.16335C33.2775 6.68097 33.672 6.14441 34.1763 5.66353C34.2316 5.66428 34.2324 5.6101 34.2877 5.61085C34.343 5.6116 34.399 5.55817 34.4543 5.55892L34.5097 5.55967C34.6203 5.56117 34.6748 5.6161 34.7854 5.6176C35.0052 5.72896 35.225 5.84032 35.444 6.00586C36.0465 6.44756 36.5369 6.99611 37.0273 7.54467C37.6821 8.20384 38.3362 8.91719 39.0471 9.52292C39.3753 9.79833 39.7042 10.0195 40.0331 10.2408C40.4166 10.5169 40.8568 10.6855 41.297 10.854C41.682 11.0218 42.1237 11.082 42.5647 11.1963C43.0617 11.2573 43.614 11.3189 44.1125 11.2715C44.5549 11.2775 44.9989 11.1751 45.3867 11.1262C45.886 11.0246 46.3859 10.8688 46.8859 10.713C47.8305 10.4007 48.7212 9.97923 49.5567 9.55703C50.8375 8.9241 52.01 8.12714 53.1817 7.38435C53.7399 7.01258 54.2981 6.64081 54.9116 6.2698C55.5811 5.84535 56.25 5.47508 56.9195 5.05063C56.9755 4.9972 57.0869 4.94452 57.1422 4.94527C57.3649 4.83991 57.5876 4.73454 57.811 4.575C58.145 4.41696 58.4798 4.20473 58.8692 4.04744C58.9252 3.99401 59.0358 3.99551 59.0919 3.94208C59.3145 3.83671 59.5925 3.7321 59.8152 3.62674C60.2046 3.46944 60.65 3.25872 61.0393 3.10143C61.4286 2.94413 61.8726 2.84177 62.3165 2.73941C62.4271 2.74091 62.4824 2.74166 62.593 2.74316C62.6483 2.7439 62.7589 2.7454 62.8142 2.74615C62.9794 2.80258 63.1446 2.85901 63.3651 2.91619C63.6394 3.08249 63.9137 3.24878 64.1873 3.46925C65.0074 4.18485 65.7161 4.95313 66.4808 5.66798C66.9727 6.10817 67.4645 6.54837 67.9564 6.98856C68.449 7.37458 68.9424 7.70641 69.435 8.09242C69.9829 8.47919 70.5323 8.75759 71.0809 9.09017C71.575 9.36783 72.1812 9.53862 72.7328 9.65448C73.0085 9.71241 73.2298 9.71541 73.507 9.66497C73.8389 9.66947 74.1714 9.61979 74.5048 9.51593C75.0593 9.41506 75.6145 9.26002 76.1152 9.05005C76.7273 8.78739 77.284 8.52398 77.8415 8.2064C78.6224 7.72927 79.2934 7.19646 80.0197 6.66439C80.4112 6.34456 80.8581 6.02547 81.2496 5.70564C81.5851 5.43923 81.9199 5.22701 82.2554 4.9606C82.9817 4.42854 83.7066 4.00484 84.5413 3.63682C84.9307 3.47953 85.3193 3.37642 85.7625 3.32823C85.9837 3.33123 86.1503 3.2793 86.3716 3.2823C86.5375 3.28455 86.7034 3.2868 86.9239 3.34398C87.5861 3.46134 88.1922 3.63213 88.7977 3.8571C89.2925 4.08057 89.8419 4.35897 90.3367 4.58245C90.6663 4.74949 90.9406 4.91578 91.2703 5.08282C91.5446 5.24911 91.8742 5.41615 92.2038 5.5832C92.8085 5.86235 93.4132 6.1415 94.0179 6.42065C94.6779 6.70055 95.3394 6.87209 96.0008 7.04363C97.4336 7.4424 98.8687 7.67861 100.304 7.86065C101.022 7.97876 101.796 7.98926 102.515 7.99901C103.234 8.00875 103.955 7.91014 104.675 7.81153C105.949 7.66623 107.226 7.30421 108.45 6.83308C109.228 6.51849 109.953 6.14897 110.732 5.7802C111.623 5.35875 112.514 4.88312 113.46 4.46242C113.627 4.41049 113.849 4.35931 114.016 4.30738C114.126 4.30888 114.237 4.31038 114.347 4.31188C114.623 4.36981 114.844 4.42699 115.119 4.5391C115.943 4.92961 116.655 5.48117 117.423 5.97929C118.189 6.5316 119.013 6.97629 119.837 7.42099C120.661 7.86568 121.541 8.20276 122.422 8.53984C123.413 8.87843 124.461 9.05522 125.511 9.12364C126.451 9.19057 127.392 9.09496 128.28 8.89023C129.057 8.73818 129.835 8.4236 130.559 8.10826C130.893 7.95022 131.171 7.8456 131.505 7.68756C131.728 7.5822 131.895 7.47609 132.118 7.37072C132.396 7.21193 132.73 7.10807 133.008 6.94927C134.51 6.37353 136.063 6.06944 137.67 5.87446C138.501 5.77735 139.386 5.73516 140.273 5.6388C140.992 5.59436 141.767 5.55068 142.487 5.50625C143.982 5.41813 145.532 5.33076 147.024 5.40519C147.633 5.41344 148.082 4.93181 148.089 4.39C148.096 3.84819 147.605 3.35382 147.052 3.34632C145.891 3.33057 144.728 3.42319 143.621 3.46237C143.011 3.61667 142.457 3.66335 141.903 3.71003ZM113.849 4.35931C113.904 4.36006 113.904 4.36006 113.96 4.36081C113.904 4.36006 113.849 4.35931 113.849 4.35931Z" fill="#FFF500"/>
</svg>
