<svg width="159" height="11" viewBox="0 0 159 11" fill="none" xmlns="http://www.w3.org/2000/svg">
<path d="M3.44972 5.5288C4.6946 5.5288 5.99875 5.4712 7.24363 5.41361C7.77715 5.41361 8.25139 5.35602 8.7849 5.35602C11.0375 5.24084 13.2902 5.12565 15.5428 5.01047C18.2697 4.89529 20.9373 4.72251 23.6641 4.60733C27.5173 4.37696 31.3705 4.20419 35.2237 3.97382C36.1129 3.91623 37.0021 3.91623 37.8913 3.85864C40.1439 3.74346 42.3966 3.62827 44.6492 3.57068C46.9018 3.4555 49.1545 3.34031 51.4071 3.28272C52.2963 3.22513 53.1855 3.16754 54.0747 3.16754C57.6315 3.05236 61.2476 2.93717 64.8043 2.82199C66.9977 2.7644 69.191 2.70681 71.4437 2.59162C72.3329 2.59162 73.1628 2.53403 74.052 2.53403C77.4902 2.47644 80.9877 2.41885 84.426 2.36126C87.8642 2.30366 91.2431 2.24607 94.6814 2.18848C95.5706 2.18848 96.4598 2.18848 97.4082 2.18848C99.6609 2.18848 101.854 2.18848 104.107 2.18848C107.604 2.18848 111.043 2.18848 114.54 2.13089C115.666 2.13089 116.793 2.13089 117.919 2.13089C120.29 2.13089 122.661 2.13089 125.033 2.13089C125.21 2.13089 125.448 2.13089 125.625 2.13089C120.29 2.18848 114.896 2.24607 109.561 2.36126C107.308 2.41885 105.115 2.41885 102.862 2.47644C101.914 2.47644 100.906 2.47644 99.9573 2.53403C96.6969 2.59162 93.4958 2.70681 90.2354 2.7644C86.5008 2.87958 82.7661 2.93717 79.0315 3.05236C78.3794 3.05236 77.7866 3.10995 77.1346 3.10995C75.119 3.22513 73.1628 3.28272 71.1473 3.39791C67.1163 3.57068 63.0852 3.74346 59.0542 3.91623C58.4614 3.91623 57.8686 3.97382 57.2758 4.03141C55.3196 4.1466 53.3041 4.31937 51.3478 4.43456C47.791 4.66492 44.2935 4.89529 40.7367 5.12565C39.7882 5.18325 38.7805 5.29843 37.832 5.35602C35.5794 5.5288 33.3268 5.70157 31.0741 5.93194C28.2287 6.1623 25.324 6.39267 22.4785 6.62304C18.5068 6.96859 14.4758 7.31414 10.504 7.65969C9.55554 7.71728 8.60706 7.83246 7.59931 7.89005C5.88019 8.06283 4.16108 8.2356 2.44196 8.40838C2.26412 8.40838 2.08628 8.52356 2.08628 8.75393C2.08628 8.9267 2.26412 9.09948 2.44196 9.09948C3.09404 9.09948 3.68684 9.15707 4.33892 9.15707C4.22036 9.44503 4.16108 9.6178 4.16108 9.79058C4.16108 10.4241 4.6946 11 5.40595 11C10.3262 10.712 15.1871 10.3665 20.1074 10.1361C24.3755 9.96335 28.6436 9.73298 32.9118 9.56021C37.5949 9.32984 42.3373 9.09948 47.0204 8.9267C48.5024 8.86911 49.9844 8.81152 51.4664 8.69633C51.8813 8.69633 52.2963 8.63874 52.7705 8.63874C60.3584 8.46597 67.9462 8.2356 75.534 8.06283C79.565 7.94764 83.6553 7.83246 87.6863 7.77487C89.1684 7.71728 90.5911 7.71728 92.0731 7.65969C99.8387 7.5445 107.604 7.42932 115.37 7.31414C118.69 7.25654 122.009 7.19895 125.329 7.14136C128.174 7.08377 131.02 7.08377 133.865 6.96859C136.237 6.91099 138.548 6.79581 140.92 6.73822C142.105 6.68063 143.291 6.68063 144.417 6.62304C147.085 6.45026 149.752 6.27749 152.42 6.10471C152.242 6.33508 152.242 6.68063 152.301 6.91099C152.361 7.19895 152.538 7.42932 152.835 7.5445C153.072 7.65969 153.428 7.77487 153.665 7.65969C154.258 7.42932 154.85 7.19895 155.384 6.96859C155.384 6.96859 155.384 6.96859 155.325 6.96859C155.384 6.96859 155.384 6.91099 155.443 6.91099C155.502 6.91099 155.562 6.8534 155.562 6.8534H155.502C155.799 6.73822 156.095 6.62304 156.451 6.45026C156.747 6.33508 157.103 6.1623 157.399 6.04712C157.755 5.87435 158.052 5.70157 158.407 5.5288C158.763 5.35602 159 4.89529 159 4.49215C159 4.26178 158.941 4.089 158.822 3.85864C158.704 3.62827 158.407 3.34031 158.111 3.28272C157.814 3.22513 157.518 3.16754 157.222 3.16754C157.162 3.16754 157.103 3.16754 157.044 3.16754C156.866 3.16754 156.629 3.16754 156.451 3.22513C155.977 3.28272 155.562 3.34031 155.088 3.34031C154.732 3.34031 154.376 3.39791 153.961 3.39791C152.953 3.4555 152.005 3.51309 150.997 3.62827C150.76 3.62827 150.464 3.68586 150.227 3.68586C150.345 3.57068 150.404 3.4555 150.404 3.34031C150.464 3.22513 150.464 3.10995 150.464 2.99476C150.464 2.93717 150.464 2.82199 150.523 2.7644C150.523 2.64921 150.523 2.53403 150.464 2.47644C150.464 2.47644 150.523 2.47644 150.523 2.41885C150.701 2.30366 150.879 2.18848 150.997 1.95812C151.116 1.78534 151.175 1.55497 151.175 1.32461C151.175 1.09424 151.116 0.921466 150.997 0.6911C150.938 0.633508 150.879 0.518325 150.819 0.460733C150.642 0.287958 150.464 0.230366 150.286 0.172775C149.93 0.0575916 149.515 0 149.1 0C148.745 0 148.448 0 148.092 0C147.618 0 147.144 0 146.67 0C146.018 0 145.306 0 144.654 0C142.876 0 141.097 0 139.319 0C137.659 0 135.94 0 134.28 0C132.739 0 131.257 0 129.716 0C123.61 0 117.563 0.0575916 111.458 0.115183C106.893 0.172775 102.328 0.230366 97.7639 0.230366C95.7484 0.230366 93.6736 0.287958 91.6581 0.34555C87.0936 0.460733 82.529 0.518325 77.9645 0.633508C76.6603 0.633508 75.3561 0.6911 74.052 0.6911C73.2814 0.6911 72.57 0.748691 71.7994 0.748691C67.2941 0.921466 62.7888 1.09424 58.2836 1.26702C56.9201 1.32461 55.5567 1.3822 54.134 1.43979C53.3633 1.43979 52.5927 1.49738 51.8221 1.55497C47.3168 1.78534 42.8708 2.01571 38.3655 2.24607C36.0536 2.36126 33.7417 2.47644 31.4298 2.64921C27.4581 2.87958 23.4863 3.10995 19.5738 3.39791C16.1356 3.62827 12.6974 3.80105 9.25914 3.97382C8.72562 4.03141 8.19211 4.03141 7.59931 4.089C6.71011 4.1466 5.82091 4.1466 4.93172 4.20419C4.16108 4.43455 3.33116 4.43456 2.56052 4.43456C2.50124 4.20419 2.26412 4.03141 2.08628 4.089C1.55276 4.089 1.07853 4.1466 0.545008 4.20419C0.307888 4.26178 0.0707691 4.37696 0.0114893 4.60733C-0.0477905 4.89529 0.130049 5.18325 0.367168 5.24084C0.604288 5.29843 0.841407 5.35602 1.07853 5.41361C1.31565 5.4712 1.49349 5.4712 1.7306 5.4712C2.3234 5.5288 2.85692 5.5288 3.44972 5.5288ZM142.165 3.68586C142.876 3.68586 143.647 3.68586 144.358 3.68586C144.417 3.85864 144.536 3.97382 144.654 4.089C144.358 4.089 144.061 4.1466 143.824 4.1466C143.291 4.1466 142.757 4.20419 142.224 4.20419C139.853 4.26178 137.541 4.37696 135.169 4.43456C134.102 4.49215 133.035 4.54974 131.968 4.54974C130.309 4.54974 128.589 4.60733 126.93 4.60733C123.076 4.66492 119.283 4.72251 115.429 4.7801C107.96 4.89529 100.55 5.01047 93.0808 5.12565C87.7456 5.18325 82.4105 5.35602 77.0753 5.5288C69.0725 5.75916 61.0104 5.93194 53.0077 6.1623C51.4071 6.2199 49.8065 6.27749 48.206 6.39267C43.6414 6.62304 39.0769 6.79581 34.5124 7.02618C30.0664 7.25654 25.5611 7.42932 21.1151 7.65969C20.7001 7.65969 20.2852 7.71728 19.8702 7.71728C21.0558 7.60209 22.3007 7.5445 23.4863 7.42932C27.6952 7.14136 31.904 6.79581 36.1129 6.50785C37.5949 6.39267 39.0769 6.27749 40.4996 6.1623C41.2703 6.10471 42.0409 6.04712 42.7522 6.04712C47.1982 5.81675 51.5849 5.5288 55.9716 5.29843C56.8016 5.24084 57.6908 5.18325 58.5207 5.12565C59.7656 5.06806 61.0104 5.01047 62.196 5.01047C66.7013 4.8377 71.2066 4.66492 75.7118 4.49215C76.7196 4.43455 77.7273 4.43456 78.6758 4.37696C78.9129 4.37696 79.2093 4.37696 79.4465 4.37696C80.1578 4.37696 80.8692 4.37696 81.5213 4.31937C86.0265 4.20419 90.5911 4.1466 95.0963 4.03141C97.1711 3.97382 99.2459 3.91623 101.321 3.91623C108.019 3.85864 114.777 3.80105 121.476 3.74346C128.471 3.74346 135.347 3.68586 142.165 3.68586Z" fill="white"/>
</svg>
